<svg width="400" height="400" viewBox="0 0 400 400" fill="none" xmlns="http://www.w3.org/2000/svg">
<path d="M53 298.308V304.41H37.286V314.076H49.328V320.07H37.286V336H29.726V298.308H53ZM62.1948 302.52C60.8628 302.52 59.7468 302.106 58.8468 301.278C57.9828 300.414 57.5508 299.352 57.5508 298.092C57.5508 296.832 57.9828 295.788 58.8468 294.96C59.7468 294.096 60.8628 293.664 62.1948 293.664C63.5268 293.664 64.6248 294.096 65.4888 294.96C66.3888 295.788 66.8388 296.832 66.8388 298.092C66.8388 299.352 66.3888 300.414 65.4888 301.278C64.6248 302.106 63.5268 302.52 62.1948 302.52ZM65.9208 306.084V336H58.3608V306.084H65.9208ZM85.1081 305.598C87.3401 305.598 89.3021 306.048 90.9941 306.948C92.6861 307.812 94.0181 308.946 94.9901 310.35V306.084H102.604V336.216C102.604 338.988 102.046 341.454 100.93 343.614C99.8141 345.81 98.1401 347.538 95.9081 348.798C93.6761 350.094 90.9761 350.742 87.8081 350.742C83.5601 350.742 80.0681 349.752 77.3321 347.772C74.6321 345.792 73.1021 343.092 72.7421 339.672H80.2481C80.6441 341.04 81.4901 342.12 82.7861 342.912C84.1181 343.74 85.7201 344.154 87.5921 344.154C89.7881 344.154 91.5701 343.488 92.9381 342.156C94.3061 340.86 94.9901 338.88 94.9901 336.216V331.572C94.0181 332.976 92.6681 334.146 90.9401 335.082C89.2481 336.018 87.3041 336.486 85.1081 336.486C82.5881 336.486 80.2841 335.838 78.1961 334.542C76.1081 333.246 74.4521 331.428 73.2281 329.088C72.0401 326.712 71.4461 323.994 71.4461 320.934C71.4461 317.91 72.0401 315.228 73.2281 312.888C74.4521 310.548 76.0901 308.748 78.1421 307.488C80.2301 306.228 82.5521 305.598 85.1081 305.598ZM94.9901 321.042C94.9901 319.206 94.6301 317.64 93.9101 316.344C93.1901 315.012 92.2181 314.004 90.9941 313.32C89.7701 312.6 88.4561 312.24 87.0521 312.24C85.6481 312.24 84.3521 312.582 83.1641 313.266C81.9761 313.95 81.0041 314.958 80.2481 316.29C79.5281 317.586 79.1681 319.134 79.1681 320.934C79.1681 322.734 79.5281 324.318 80.2481 325.686C81.0041 327.018 81.9761 328.044 83.1641 328.764C84.3881 329.484 85.6841 329.844 87.0521 329.844C88.4561 329.844 89.7701 329.502 90.9941 328.818C92.2181 328.098 93.1901 327.09 93.9101 325.794C94.6301 324.462 94.9901 322.878 94.9901 321.042ZM147.14 305.652C150.812 305.652 153.764 306.786 155.996 309.054C158.264 311.286 159.398 314.418 159.398 318.45V336H151.838V319.476C151.838 317.136 151.244 315.354 150.056 314.13C148.868 312.87 147.248 312.24 145.196 312.24C143.144 312.24 141.506 312.87 140.282 314.13C139.094 315.354 138.5 317.136 138.5 319.476V336H130.94V319.476C130.94 317.136 130.346 315.354 129.158 314.13C127.97 312.87 126.35 312.24 124.298 312.24C122.21 312.24 120.554 312.87 119.33 314.13C118.142 315.354 117.548 317.136 117.548 319.476V336H109.988V306.084H117.548V309.702C118.52 308.442 119.762 307.452 121.274 306.732C122.822 306.012 124.514 305.652 126.35 305.652C128.69 305.652 130.778 306.156 132.614 307.164C134.45 308.136 135.872 309.54 136.88 311.376C137.852 309.648 139.256 308.262 141.092 307.218C142.964 306.174 144.98 305.652 147.14 305.652ZM164.628 320.934C164.628 317.91 165.222 315.228 166.41 312.888C167.634 310.548 169.272 308.748 171.324 307.488C173.412 306.228 175.734 305.598 178.29 305.598C180.522 305.598 182.466 306.048 184.122 306.948C185.814 307.848 187.164 308.982 188.172 310.35V306.084H195.786V336H188.172V331.626C187.2 333.03 185.85 334.2 184.122 335.136C182.43 336.036 180.468 336.486 178.236 336.486C175.716 336.486 173.412 335.838 171.324 334.542C169.272 333.246 167.634 331.428 166.41 329.088C165.222 326.712 164.628 323.994 164.628 320.934ZM188.172 321.042C188.172 319.206 187.812 317.64 187.092 316.344C186.372 315.012 185.4 314.004 184.176 313.32C182.952 312.6 181.638 312.24 180.234 312.24C178.83 312.24 177.534 312.582 176.346 313.266C175.158 313.95 174.186 314.958 173.43 316.29C172.71 317.586 172.35 319.134 172.35 320.934C172.35 322.734 172.71 324.318 173.43 325.686C174.186 327.018 175.158 328.044 176.346 328.764C177.57 329.484 178.866 329.844 180.234 329.844C181.638 329.844 182.952 329.502 184.176 328.818C185.4 328.098 186.372 327.09 187.092 325.794C187.812 324.462 188.172 322.878 188.172 321.042ZM228.819 298.308V304.41H218.775V336H211.215V304.41H201.171V298.308H228.819ZM247.619 336.486C244.739 336.486 242.147 335.856 239.843 334.596C237.539 333.3 235.721 331.482 234.389 329.142C233.093 326.802 232.445 324.102 232.445 321.042C232.445 317.982 233.111 315.282 234.443 312.942C235.811 310.602 237.665 308.802 240.005 307.542C242.345 306.246 244.955 305.598 247.835 305.598C250.715 305.598 253.325 306.246 255.665 307.542C258.005 308.802 259.841 310.602 261.173 312.942C262.541 315.282 263.225 317.982 263.225 321.042C263.225 324.102 262.523 326.802 261.119 329.142C259.751 331.482 257.879 333.3 255.503 334.596C253.163 335.856 250.535 336.486 247.619 336.486ZM247.619 329.898C248.987 329.898 250.265 329.574 251.453 328.926C252.677 328.242 253.649 327.234 254.369 325.902C255.089 324.57 255.449 322.95 255.449 321.042C255.449 318.198 254.693 316.02 253.181 314.508C251.705 312.96 249.887 312.186 247.727 312.186C245.567 312.186 243.749 312.96 242.273 314.508C240.833 316.02 240.113 318.198 240.113 321.042C240.113 323.886 240.815 326.082 242.219 327.63C243.659 329.142 245.459 329.898 247.619 329.898ZM291.343 336L283.189 323.31L275.791 336H267.259L279.139 316.992L267.097 298.308H275.791L283.945 310.944L291.289 298.308H299.821L287.995 317.262L300.037 336H291.343ZM346.884 298.308V336H339.324V311.484L329.226 336H323.502L313.35 311.484V336H305.79V298.308H314.376L326.364 326.334L338.352 298.308H346.884ZM361.919 330.006H374.339V336H354.359V298.308H361.919V330.006Z" fill="#252525"/>
<path d="M111 160C111 110.295 151.295 70 201 70C250.705 70 291 110.295 291 160C291 209.705 250.705 250 201 250C151.295 250 111 209.705 111 160Z" fill="#333333"/>
<path d="M183 213.999C192.941 213.999 201 205.941 201 195.999V177.999H183C173.059 177.999 165 186.058 165 195.999C165 205.941 173.059 213.999 183 213.999Z" fill="#0ACF83"/>
<path d="M165 160C165 150.059 173.059 142 183 142H201V178H183C173.059 178 165 169.941 165 160Z" fill="#A259FF"/>
<path d="M165 124C165 114.059 173.059 106 183 106H201V142H183C173.059 142 165 133.941 165 124Z" fill="#F24E1E"/>
<path d="M201 106H219C228.941 106 237 114.059 237 124C237 133.941 228.941 142 219 142H201V106Z" fill="#FF7262"/>
<path d="M237 160C237 169.941 228.941 178 219 178C209.059 178 201 169.941 201 160C201 150.059 209.059 142 219 142C228.941 142 237 150.059 237 160Z" fill="#1ABCFE"/>
<path d="M87.5 132L57.8292 158.548C53.3864 162.523 53.3864 169.477 57.8292 173.452L87.5 200" stroke="#333333" stroke-width="10"/>
<path d="M333 132L362.671 158.548C367.114 162.523 367.114 169.477 362.671 173.452L333 200" stroke="#333333" stroke-width="10"/>
<path d="M295 219L326 113" stroke="#333333" stroke-width="8" stroke-linecap="round"/>
</svg>
