<svg width="400" height="400" viewBox="0 0 400 400" fill="none" xmlns="http://www.w3.org/2000/svg">
<path d="M123.74 336.378C121.112 336.378 118.736 335.928 116.612 335.028C114.524 334.128 112.868 332.832 111.644 331.14C110.42 329.448 109.79 327.45 109.754 325.146H117.854C117.962 326.694 118.502 327.918 119.474 328.818C120.482 329.718 121.85 330.168 123.578 330.168C125.342 330.168 126.728 329.754 127.736 328.926C128.744 328.062 129.248 326.946 129.248 325.578C129.248 324.462 128.906 323.544 128.222 322.824C127.538 322.104 126.674 321.546 125.63 321.15C124.622 320.718 123.218 320.25 121.418 319.746C118.97 319.026 116.972 318.324 115.424 317.64C113.912 316.92 112.598 315.858 111.482 314.454C110.402 313.014 109.862 311.106 109.862 308.73C109.862 306.498 110.42 304.554 111.536 302.898C112.652 301.242 114.218 299.982 116.234 299.118C118.25 298.218 120.554 297.768 123.146 297.768C127.034 297.768 130.184 298.722 132.596 300.63C135.044 302.502 136.394 305.13 136.646 308.514H128.33C128.258 307.218 127.7 306.156 126.656 305.328C125.648 304.464 124.298 304.032 122.606 304.032C121.13 304.032 119.942 304.41 119.042 305.166C118.178 305.922 117.746 307.02 117.746 308.46C117.746 309.468 118.07 310.314 118.718 310.998C119.402 311.646 120.23 312.186 121.202 312.618C122.21 313.014 123.614 313.482 125.414 314.022C127.862 314.742 129.86 315.462 131.408 316.182C132.956 316.902 134.288 317.982 135.404 319.422C136.52 320.862 137.078 322.752 137.078 325.092C137.078 327.108 136.556 328.98 135.512 330.708C134.468 332.436 132.938 333.822 130.922 334.866C128.906 335.874 126.512 336.378 123.74 336.378ZM161.344 336L151.192 323.256V336H143.632V296.04H151.192V318.774L161.236 306.084H171.064L157.888 321.096L171.172 336H161.344ZM202.977 320.394C202.977 321.474 202.905 322.446 202.761 323.31H180.891C181.071 325.47 181.827 327.162 183.159 328.386C184.491 329.61 186.129 330.222 188.073 330.222C190.881 330.222 192.879 329.016 194.067 326.604H202.221C201.357 329.484 199.701 331.86 197.253 333.732C194.805 335.568 191.799 336.486 188.235 336.486C185.355 336.486 182.763 335.856 180.459 334.596C178.191 333.3 176.409 331.482 175.113 329.142C173.853 326.802 173.223 324.102 173.223 321.042C173.223 317.946 173.853 315.228 175.113 312.888C176.373 310.548 178.137 308.748 180.405 307.488C182.673 306.228 185.283 305.598 188.235 305.598C191.079 305.598 193.617 306.21 195.849 307.434C198.117 308.658 199.863 310.404 201.087 312.672C202.347 314.904 202.977 317.478 202.977 320.394ZM195.147 318.234C195.111 316.29 194.409 314.742 193.041 313.59C191.673 312.402 189.999 311.808 188.019 311.808C186.147 311.808 184.563 312.384 183.267 313.536C182.007 314.652 181.233 316.218 180.945 318.234H195.147ZM217.298 312.294V326.766C217.298 327.774 217.532 328.512 218 328.98C218.504 329.412 219.332 329.628 220.484 329.628H223.994V336H219.242C212.87 336 209.684 332.904 209.684 326.712V312.294H206.12V306.084H209.684V298.686H217.298V306.084H223.994V312.294H217.298ZM227.487 321.042C227.487 317.946 228.117 315.246 229.377 312.942C230.637 310.602 232.383 308.802 234.615 307.542C236.847 306.246 239.403 305.598 242.283 305.598C245.991 305.598 249.051 306.534 251.463 308.406C253.911 310.242 255.549 312.834 256.377 316.182H248.223C247.791 314.886 247.053 313.878 246.009 313.158C245.001 312.402 243.741 312.024 242.229 312.024C240.069 312.024 238.359 312.816 237.099 314.4C235.839 315.948 235.209 318.162 235.209 321.042C235.209 323.886 235.839 326.1 237.099 327.684C238.359 329.232 240.069 330.006 242.229 330.006C245.289 330.006 247.287 328.638 248.223 325.902H256.377C255.549 329.142 253.911 331.716 251.463 333.624C249.015 335.532 245.955 336.486 242.283 336.486C239.403 336.486 236.847 335.856 234.615 334.596C232.383 333.3 230.637 331.5 229.377 329.196C228.117 326.856 227.487 324.138 227.487 321.042ZM278.763 305.652C281.031 305.652 283.047 306.156 284.811 307.164C286.575 308.136 287.943 309.594 288.915 311.538C289.923 313.446 290.427 315.75 290.427 318.45V336H282.867V319.476C282.867 317.1 282.273 315.282 281.085 314.022C279.897 312.726 278.277 312.078 276.225 312.078C274.137 312.078 272.481 312.726 271.257 314.022C270.069 315.282 269.475 317.1 269.475 319.476V336H261.915V296.04H269.475V309.81C270.447 308.514 271.743 307.506 273.363 306.786C274.983 306.03 276.783 305.652 278.763 305.652Z" fill="#252525"/>
<path d="M183.938 168.608L193.739 181.678L186.387 245.26H116.09C116.09 245.26 116.585 217.73 119.383 201.409C119.845 198.713 120.935 196.163 122.566 193.967C124.196 191.771 126.321 189.989 128.768 188.767C145.089 180.631 180.902 168.608 180.902 168.608H183.938Z" fill="#2D3E50"/>
<path d="M285.91 245.26H217.449L208.26 181.684L218.062 168.608H221.092C221.092 168.608 256.911 180.631 273.232 188.767C275.678 189.99 277.803 191.772 279.433 193.968C281.063 196.164 282.154 198.713 282.617 201.409C285.415 217.73 285.91 245.26 285.91 245.26Z" fill="#2D3E50"/>
<path d="M201 156.912C193.503 156.912 186.24 154.304 180.455 149.535C174.67 144.766 170.724 138.134 169.294 130.774L164.354 105.352C163.7 100.541 164.084 95.6447 165.479 90.9935C166.874 86.3422 169.249 82.0434 172.443 78.3859C175.637 74.7284 179.577 71.7968 183.998 69.7881C188.419 67.7795 193.219 66.7402 198.075 66.7402H203.925C208.781 66.7402 213.58 67.7795 218.002 69.7881C222.423 71.7968 226.363 74.7284 229.557 78.3859C232.751 82.0434 235.126 86.3422 236.521 90.9935C237.916 95.6447 238.3 100.541 237.646 105.352L232.706 130.774C231.275 138.134 227.33 144.766 221.545 149.535C215.76 154.304 208.497 156.912 201 156.912Z" fill="#2D3E50"/>
</svg>
