<svg width="400" height="400" viewBox="0 0 400 400" fill="none" xmlns="http://www.w3.org/2000/svg">
<g clip-path="url(#clip0_28:16)">
<path d="M187.832 65.7173L130.147 223H91.84L34.1547 65.7173H67.9547L111.219 190.777L154.257 65.7173H187.832Z" fill="#4B4B4B"/>
<path d="M214.391 95.88L292.546 180.918L344 199.645L333.21 229.29L281.756 210.562L167.147 225.679L179.324 192.224L258.431 185.047L202.368 128.912L214.391 95.88Z" fill="#4B4B4B"/>
<path d="M46.696 298.308L33.952 322.878V336H26.392V322.878L13.594 298.308H22.126L30.226 315.534L38.272 298.308H46.696ZM64.3401 336.486C61.4601 336.486 58.8681 335.856 56.5641 334.596C54.2601 333.3 52.4421 331.482 51.1101 329.142C49.8141 326.802 49.1661 324.102 49.1661 321.042C49.1661 317.982 49.8321 315.282 51.1641 312.942C52.5321 310.602 54.3861 308.802 56.7261 307.542C59.0661 306.246 61.6761 305.598 64.5561 305.598C67.4361 305.598 70.0461 306.246 72.3861 307.542C74.7261 308.802 76.5621 310.602 77.8941 312.942C79.2621 315.282 79.9461 317.982 79.9461 321.042C79.9461 324.102 79.2441 326.802 77.8401 329.142C76.4721 331.482 74.6001 333.3 72.2241 334.596C69.8841 335.856 67.2561 336.486 64.3401 336.486ZM64.3401 329.898C65.7081 329.898 66.9861 329.574 68.1741 328.926C69.3981 328.242 70.3701 327.234 71.0901 325.902C71.8101 324.57 72.1701 322.95 72.1701 321.042C72.1701 318.198 71.4141 316.02 69.9021 314.508C68.4261 312.96 66.6081 312.186 64.4481 312.186C62.2881 312.186 60.4701 312.96 58.9941 314.508C57.5541 316.02 56.8341 318.198 56.8341 321.042C56.8341 323.886 57.5361 326.082 58.9401 327.63C60.3801 329.142 62.1801 329.898 64.3401 329.898ZM113.734 306.084V336H106.12V332.22C105.148 333.516 103.87 334.542 102.286 335.298C100.738 336.018 99.0456 336.378 97.2096 336.378C94.8696 336.378 92.7996 335.892 90.9996 334.92C89.1996 333.912 87.7776 332.454 86.7336 330.546C85.7256 328.602 85.2216 326.298 85.2216 323.634V306.084H92.7816V322.554C92.7816 324.93 93.3756 326.766 94.5636 328.062C95.7516 329.322 97.3716 329.952 99.4236 329.952C101.512 329.952 103.15 329.322 104.338 328.062C105.526 326.766 106.12 324.93 106.12 322.554V306.084H113.734ZM146.843 298.308V304.41H136.799V336H129.239V304.41H119.195V298.308H146.843ZM180.601 306.084V336H172.987V332.22C172.015 333.516 170.737 334.542 169.153 335.298C167.605 336.018 165.913 336.378 164.077 336.378C161.737 336.378 159.667 335.892 157.867 334.92C156.067 333.912 154.645 332.454 153.601 330.546C152.593 328.602 152.089 326.298 152.089 323.634V306.084H159.649V322.554C159.649 324.93 160.243 326.766 161.431 328.062C162.619 329.322 164.239 329.952 166.291 329.952C168.379 329.952 170.017 329.322 171.205 328.062C172.393 326.766 172.987 324.93 172.987 322.554V306.084H180.601ZM195.62 310.458C196.592 309.018 197.924 307.848 199.616 306.948C201.344 306.048 203.306 305.598 205.502 305.598C208.058 305.598 210.362 306.228 212.414 307.488C214.502 308.748 216.14 310.548 217.328 312.888C218.552 315.192 219.164 317.874 219.164 320.934C219.164 323.994 218.552 326.712 217.328 329.088C216.14 331.428 214.502 333.246 212.414 334.542C210.362 335.838 208.058 336.486 205.502 336.486C203.27 336.486 201.308 336.054 199.616 335.19C197.96 334.29 196.628 333.138 195.62 331.734V336H188.06V296.04H195.62V310.458ZM211.442 320.934C211.442 319.134 211.064 317.586 210.308 316.29C209.588 314.958 208.616 313.95 207.392 313.266C206.204 312.582 204.908 312.24 203.504 312.24C202.136 312.24 200.84 312.6 199.616 313.32C198.428 314.004 197.456 315.012 196.7 316.344C195.98 317.676 195.62 319.242 195.62 321.042C195.62 322.842 195.98 324.408 196.7 325.74C197.456 327.072 198.428 328.098 199.616 328.818C200.84 329.502 202.136 329.844 203.504 329.844C204.908 329.844 206.204 329.484 207.392 328.764C208.616 328.044 209.588 327.018 210.308 325.686C211.064 324.354 211.442 322.77 211.442 320.934ZM252.468 320.394C252.468 321.474 252.396 322.446 252.252 323.31H230.382C230.562 325.47 231.318 327.162 232.65 328.386C233.982 329.61 235.62 330.222 237.564 330.222C240.372 330.222 242.37 329.016 243.558 326.604H251.712C250.848 329.484 249.192 331.86 246.744 333.732C244.296 335.568 241.29 336.486 237.726 336.486C234.846 336.486 232.254 335.856 229.95 334.596C227.682 333.3 225.9 331.482 224.604 329.142C223.344 326.802 222.714 324.102 222.714 321.042C222.714 317.946 223.344 315.228 224.604 312.888C225.864 310.548 227.628 308.748 229.896 307.488C232.164 306.228 234.774 305.598 237.726 305.598C240.57 305.598 243.108 306.21 245.34 307.434C247.608 308.658 249.354 310.404 250.578 312.672C251.838 314.904 252.468 317.478 252.468 320.394ZM244.638 318.234C244.602 316.29 243.9 314.742 242.532 313.59C241.164 312.402 239.49 311.808 237.51 311.808C235.638 311.808 234.054 312.384 232.758 313.536C231.498 314.652 230.724 316.218 230.436 318.234H244.638Z" fill="#FF0000"/>
<path d="M291.844 298.308L278.02 336H268.84L255.016 298.308H263.116L273.484 328.278L283.798 298.308H291.844ZM300.21 302.52C298.878 302.52 297.762 302.106 296.862 301.278C295.998 300.414 295.566 299.352 295.566 298.092C295.566 296.832 295.998 295.788 296.862 294.96C297.762 294.096 298.878 293.664 300.21 293.664C301.542 293.664 302.64 294.096 303.504 294.96C304.404 295.788 304.854 296.832 304.854 298.092C304.854 299.352 304.404 300.414 303.504 301.278C302.64 302.106 301.542 302.52 300.21 302.52ZM303.936 306.084V336H296.376V306.084H303.936ZM339.216 320.394C339.216 321.474 339.144 322.446 339 323.31H317.13C317.31 325.47 318.066 327.162 319.398 328.386C320.73 329.61 322.368 330.222 324.312 330.222C327.12 330.222 329.118 329.016 330.306 326.604H338.46C337.596 329.484 335.94 331.86 333.492 333.732C331.044 335.568 328.038 336.486 324.474 336.486C321.594 336.486 319.002 335.856 316.698 334.596C314.43 333.3 312.648 331.482 311.352 329.142C310.092 326.802 309.462 324.102 309.462 321.042C309.462 317.946 310.092 315.228 311.352 312.888C312.612 310.548 314.376 308.748 316.644 307.488C318.912 306.228 321.522 305.598 324.474 305.598C327.318 305.598 329.856 306.21 332.088 307.434C334.356 308.658 336.102 310.404 337.326 312.672C338.586 314.904 339.216 317.478 339.216 320.394ZM331.386 318.234C331.35 316.29 330.648 314.742 329.28 313.59C327.912 312.402 326.238 311.808 324.258 311.808C322.386 311.808 320.802 312.384 319.506 313.536C318.246 314.652 317.472 316.218 317.184 318.234H331.386ZM386.206 306.084L377.458 336H369.304L363.85 315.102L358.396 336H350.188L341.386 306.084H349.054L354.346 328.872L360.07 306.084H368.062L373.678 328.818L378.97 306.084H386.206Z" fill="#252525"/>
</g>
<defs>
<clipPath id="clip0_28:16">
<rect width="375" height="316" fill="white" transform="translate(13 42)"/>
</clipPath>
</defs>
</svg>
